<svg width="98" height="28" viewBox="0 0 98 28" fill="none" xmlns="http://www.w3.org/2000/svg">
<path d="M9.42188 22.3662C7.84961 22.3662 6.37988 22.1172 5.0127 21.6191C3.64551 21.1211 2.50293 20.4375 1.58496 19.5684C0.833008 18.8848 0.754883 18.2158 1.35059 17.5615L2.40527 16.3018C3.05957 15.5498 3.71875 15.4668 4.38281 16.0527C5.00781 16.5801 5.76465 17.0293 6.65332 17.4004C7.54199 17.7715 8.3623 17.957 9.11426 17.957C9.97363 17.957 10.6523 17.8154 11.1504 17.5322C11.6582 17.2393 11.9121 16.8486 11.9121 16.3604C11.9121 16.165 11.8828 15.9941 11.8242 15.8477C11.7656 15.6914 11.6631 15.5547 11.5166 15.4375C11.3799 15.3203 11.2383 15.2178 11.0918 15.1299C10.9551 15.042 10.7549 14.9541 10.4912 14.8662C10.2373 14.7783 10.0078 14.7051 9.80273 14.6465C9.60742 14.5879 9.3291 14.5098 8.96777 14.4121C8.61621 14.3145 8.31836 14.2314 8.07422 14.1631C7.43945 13.9775 6.8584 13.7822 6.33105 13.5771C5.80371 13.3623 5.24707 13.0791 4.66113 12.7275C4.08496 12.3662 3.59668 11.9805 3.19629 11.5703C2.80566 11.1504 2.47852 10.6377 2.21484 10.0322C1.96094 9.41699 1.83398 8.74805 1.83398 8.02539C1.83398 6.28711 2.53711 4.87109 3.94336 3.77734C5.35938 2.68359 7.18555 2.13672 9.42188 2.13672C10.7109 2.13672 11.9219 2.33203 13.0547 2.72266C14.1875 3.11328 15.1738 3.64063 16.0137 4.30469C16.8145 4.96875 16.9268 5.62793 16.3506 6.28223L15.3252 7.54199C14.7295 8.25488 14.0703 8.33301 13.3477 7.77637C12.0879 6.7998 10.8086 6.31152 9.50977 6.31152C8.81641 6.31152 8.25977 6.44336 7.83984 6.70703C7.42969 6.9707 7.22461 7.32715 7.22461 7.77637C7.22461 8.04004 7.29785 8.2793 7.44434 8.49414C7.60059 8.70898 7.83008 8.9043 8.13281 9.08008C8.44531 9.24609 8.74316 9.38281 9.02637 9.49023C9.30957 9.59766 9.6709 9.71973 10.1104 9.85645C11.8877 10.4033 13.1328 10.8525 13.8457 11.2041C15.6035 12.0537 16.6875 13.2207 17.0977 14.7051C17.2344 15.2129 17.3027 15.7549 17.3027 16.3311C17.3027 17.6006 16.9414 18.6992 16.2188 19.627C15.4961 20.5547 14.5439 21.2432 13.3623 21.6924C12.1904 22.1416 10.877 22.3662 9.42188 22.3662ZM34.9688 20.623C35.2812 21.043 35.3496 21.3799 35.1738 21.6338C35.0078 21.8779 34.6904 22 34.2217 22H30.9404C30.5205 22 30.1543 21.8877 29.8418 21.6631C29.5293 21.4385 29.2168 21.1016 28.9043 20.6523L26.0625 16.3896L25.0957 17.5029V20.623C25.0957 21.0527 24.9736 21.3896 24.7295 21.6338C24.4854 21.8779 24.1484 22 23.7188 22H21.2871C20.8574 22 20.5254 21.8779 20.291 21.6338C20.0566 21.3896 19.9395 21.0527 19.9395 20.623V2.44434C19.9395 2.02441 20.0518 1.70703 20.2764 1.49219C20.501 1.27734 20.8379 1.13086 21.2871 1.05273L23.6895 0.613281C24.1191 0.525391 24.4609 0.618164 24.7148 0.891602C24.9688 1.15527 25.0957 1.52148 25.0957 1.99023V12.9766L28.875 8.20117C29.2656 7.72266 29.5977 7.38086 29.8711 7.17578C30.1543 6.96094 30.501 6.85352 30.9111 6.85352H33.9727C34.4219 6.85352 34.7295 6.98047 34.8955 7.23438C35.0713 7.47852 35.0029 7.81055 34.6904 8.23047L29.9883 13.8115L34.9688 20.623ZM50.6865 6.85352C51.1162 6.85352 51.4482 6.97559 51.6826 7.21973C51.917 7.46387 52.0342 7.80078 52.0342 8.23047V20.623C52.0342 21.0527 51.917 21.3896 51.6826 21.6338C51.4482 21.8779 51.1162 22 50.6865 22H49.2217C48.792 22 48.4551 21.8779 48.2109 21.6338C47.9668 21.3896 47.8447 21.0527 47.8447 20.623V20.0225C46.8193 21.6045 45.3252 22.3955 43.3623 22.3955C41.5068 22.3955 40.0078 21.834 38.8652 20.7109C37.7324 19.5879 37.166 18.1084 37.166 16.2725V8.23047C37.166 7.80078 37.2881 7.46387 37.5322 7.21973C37.7764 6.97559 38.1133 6.85352 38.543 6.85352H41.0039C41.4336 6.85352 41.7705 6.97559 42.0146 7.21973C42.2588 7.46387 42.3809 7.80078 42.3809 8.23047V15.5254C42.3809 16.2578 42.5811 16.8535 42.9814 17.3125C43.3818 17.7617 43.9189 17.9863 44.5928 17.9863C45.2861 17.9863 45.833 17.7568 46.2334 17.2979C46.6436 16.8389 46.8486 16.2383 46.8486 15.4961V8.23047C46.8486 7.80078 46.9658 7.46387 47.2002 7.21973C47.4346 6.97559 47.7666 6.85352 48.1963 6.85352H50.6865ZM64.5586 6.60449C65.9746 6.60449 67.2539 6.95117 68.3965 7.64453C69.5488 8.33789 70.4473 9.29004 71.0918 10.501C71.7363 11.7021 72.0586 13.0352 72.0586 14.5C72.0586 15.9551 71.7363 17.2881 71.0918 18.499C70.457 19.7002 69.5635 20.6523 68.4111 21.3555C67.2686 22.0488 65.9844 22.3955 64.5586 22.3955C63.1621 22.3955 61.8926 22.0342 60.75 21.3115V26.3213C60.75 26.751 60.6328 27.0879 60.3984 27.332C60.1641 27.5762 59.832 27.6982 59.4023 27.6982H56.9121C56.4824 27.6982 56.1504 27.5762 55.916 27.332C55.6816 27.0879 55.5645 26.751 55.5645 26.3213V8.23047C55.5645 7.80078 55.6816 7.46387 55.916 7.21973C56.1504 6.97559 56.4824 6.85352 56.9121 6.85352H58.377C58.8066 6.85352 59.1387 6.97559 59.373 7.21973C59.6172 7.46387 59.7393 7.80078 59.7393 8.23047V8.43555C61.1553 7.21484 62.7617 6.60449 64.5586 6.60449ZM63.6943 17.957C64.6416 17.957 65.418 17.6299 66.0234 16.9756C66.6289 16.3115 66.9316 15.4863 66.9316 14.5C66.9316 13.5137 66.6289 12.6934 66.0234 12.0391C65.418 11.375 64.6416 11.043 63.6943 11.043C62.7764 11.043 62.0098 11.3652 61.3945 12.0098C60.7891 12.6445 60.4863 13.4746 60.4863 14.5C60.4863 15.5254 60.7891 16.3604 61.3945 17.0049C62.0098 17.6396 62.7764 17.957 63.6943 17.957ZM81.1992 6.60449C82.1562 6.60449 83.0449 6.7168 83.8652 6.94141C84.6855 7.16602 85.4424 7.51758 86.1357 7.99609C86.8291 8.47461 87.376 9.14355 87.7764 10.0029C88.1768 10.8623 88.377 11.873 88.377 13.0352V20.623C88.377 21.541 87.918 22 87 22H85.7695C85.3398 22 85.0029 21.8779 84.7588 21.6338C84.5244 21.3896 84.4072 21.0527 84.4072 20.623V20.5059C83.0205 21.7656 81.4238 22.3955 79.6172 22.3955C77.8301 22.3955 76.3945 21.9609 75.3105 21.0918C74.2363 20.2129 73.6992 19.0557 73.6992 17.6201C73.6992 16.0771 74.29 14.8369 75.4717 13.8994C76.6533 12.9619 78.2158 12.4932 80.1592 12.4932C81.1943 12.4932 82.332 12.7031 83.5723 13.123V12.5811C83.5723 11.8779 83.333 11.3262 82.8545 10.9258C82.3857 10.5254 81.7168 10.3252 80.8477 10.3252C79.5879 10.3252 78.4648 10.6182 77.4785 11.2041C76.7266 11.624 76.1504 11.4434 75.75 10.6621L75.4131 9.97363C75.1787 9.47559 75.0957 9.08984 75.1641 8.81641C75.2324 8.54297 75.4375 8.29883 75.7793 8.08398C76.502 7.625 77.3564 7.26367 78.3428 7C79.3291 6.73633 80.2812 6.60449 81.1992 6.60449ZM80.9355 19.1729C81.707 19.1729 82.3564 18.9775 82.8838 18.5869C83.4209 18.1963 83.6895 17.7861 83.6895 17.3564V16.126C82.7422 15.6865 81.8438 15.4668 80.9941 15.4668C80.2617 15.4668 79.6709 15.6426 79.2217 15.9941C78.7822 16.3457 78.5625 16.7998 78.5625 17.3564C78.5625 17.9131 78.7773 18.3574 79.207 18.6895C79.6367 19.0117 80.2129 19.1729 80.9355 19.1729ZM93.1816 22C92.7422 22 92.4004 21.8828 92.1562 21.6484C91.9219 21.4043 91.8047 21.0625 91.8047 20.623V2.44434C91.8047 2.02441 91.917 1.70703 92.1416 1.49219C92.376 1.27734 92.7227 1.13086 93.1816 1.05273L95.6133 0.583984C96.043 0.496094 96.3848 0.588867 96.6387 0.862305C96.8926 1.12598 97.0195 1.49219 97.0195 1.96094V20.623C97.0195 21.0527 96.8975 21.3896 96.6533 21.6338C96.4092 21.8779 96.0723 22 95.6426 22H93.1816Z" fill="white"/>
</svg>
